<svg class="main-svg" xmlns="http://www.w3.org/2000/svg" xmlns:xlink="http://www.w3.org/1999/xlink" width="1200" height="600" style="" viewBox="0 0 1200 600"><rect x="0" y="0" width="1200" height="600" style="fill: rgb(0, 0, 0); fill-opacity: 0;"/><defs id="defs-0d64ac"><g class="clips"><clipPath id="clip0d64acxyplot" class="plotclip"><rect width="1059" height="450"/></clipPath><clipPath class="axesclip" id="clip0d64acx"><rect x="113" y="0" width="1059" height="600"/></clipPath><clipPath class="axesclip" id="clip0d64acy"><rect x="0" y="20" width="1200" height="450"/></clipPath><clipPath class="axesclip" id="clip0d64acxy"><rect x="113" y="20" width="1059" height="450"/></clipPath></g><g class="gradients"/><g class="patterns"/></defs><g class="bglayer"><rect class="bg" x="113" y="20" width="1059" height="450" style="fill: rgb(0, 0, 0); fill-opacity: 0; stroke-width: 0;"/></g><g class="layer-below"><g class="imagelayer"/><g class="shapelayer"/></g><g class="cartesianlayer"><g class="subplot xy"><g class="layer-subplot"><g class="shapelayer"/><g class="imagelayer"/></g><g class="minor-gridlayer"><g class="x"/><g class="y"/></g><g class="gridlayer"><g class="x"><path class="xgrid crisp" transform="translate(155.36,0)" d="M0,20v450" style="stroke: rgb(211, 211, 211); stroke-opacity: 1; stroke-width: 1px;"/><path class="xgrid crisp" transform="translate(197.72,0)" d="M0,20v450" style="stroke: rgb(211, 211, 211); stroke-opacity: 1; stroke-width: 1px;"/><path class="xgrid crisp" transform="translate(240.07999999999998,0)" d="M0,20v450" style="stroke: rgb(211, 211, 211); stroke-opacity: 1; stroke-width: 1px;"/><path class="xgrid crisp" transform="translate(282.44,0)" d="M0,20v450" style="stroke: rgb(211, 211, 211); stroke-opacity: 1; stroke-width: 1px;"/><path class="xgrid crisp" transform="translate(324.8,0)" d="M0,20v450" style="stroke: rgb(211, 211, 211); stroke-opacity: 1; stroke-width: 1px;"/><path class="xgrid crisp" transform="translate(367.15999999999997,0)" d="M0,20v450" style="stroke: rgb(211, 211, 211); stroke-opacity: 1; stroke-width: 1px;"/><path class="xgrid crisp" transform="translate(409.52,0)" d="M0,20v450" style="stroke: rgb(211, 211, 211); stroke-opacity: 1; stroke-width: 1px;"/><path class="xgrid crisp" transform="translate(451.88,0)" d="M0,20v450" style="stroke: rgb(211, 211, 211); stroke-opacity: 1; stroke-width: 1px;"/><path class="xgrid crisp" transform="translate(494.24,0)" d="M0,20v450" style="stroke: rgb(211, 211, 211); stroke-opacity: 1; stroke-width: 1px;"/><path class="xgrid crisp" transform="translate(536.6,0)" d="M0,20v450" style="stroke: rgb(211, 211, 211); stroke-opacity: 1; stroke-width: 1px;"/><path class="xgrid crisp" transform="translate(578.96,0)" d="M0,20v450" style="stroke: rgb(211, 211, 211); stroke-opacity: 1; stroke-width: 1px;"/><path class="xgrid crisp" transform="translate(621.3199999999999,0)" d="M0,20v450" style="stroke: rgb(211, 211, 211); stroke-opacity: 1; stroke-width: 1px;"/><path class="xgrid crisp" transform="translate(663.68,0)" d="M0,20v450" style="stroke: rgb(211, 211, 211); stroke-opacity: 1; stroke-width: 1px;"/><path class="xgrid crisp" transform="translate(706.04,0)" d="M0,20v450" style="stroke: rgb(211, 211, 211); stroke-opacity: 1; stroke-width: 1px;"/><path class="xgrid crisp" transform="translate(748.4,0)" d="M0,20v450" style="stroke: rgb(211, 211, 211); stroke-opacity: 1; stroke-width: 1px;"/><path class="xgrid crisp" transform="translate(790.76,0)" d="M0,20v450" style="stroke: rgb(211, 211, 211); stroke-opacity: 1; stroke-width: 1px;"/><path class="xgrid crisp" transform="translate(833.12,0)" d="M0,20v450" style="stroke: rgb(211, 211, 211); stroke-opacity: 1; stroke-width: 1px;"/><path class="xgrid crisp" transform="translate(875.48,0)" d="M0,20v450" style="stroke: rgb(211, 211, 211); stroke-opacity: 1; stroke-width: 1px;"/><path class="xgrid crisp" transform="translate(917.84,0)" d="M0,20v450" style="stroke: rgb(211, 211, 211); stroke-opacity: 1; stroke-width: 1px;"/><path class="xgrid crisp" transform="translate(960.2,0)" d="M0,20v450" style="stroke: rgb(211, 211, 211); stroke-opacity: 1; stroke-width: 1px;"/><path class="xgrid crisp" transform="translate(1002.56,0)" d="M0,20v450" style="stroke: rgb(211, 211, 211); stroke-opacity: 1; stroke-width: 1px;"/><path class="xgrid crisp" transform="translate(1044.92,0)" d="M0,20v450" style="stroke: rgb(211, 211, 211); stroke-opacity: 1; stroke-width: 1px;"/><path class="xgrid crisp" transform="translate(1087.28,0)" d="M0,20v450" style="stroke: rgb(211, 211, 211); stroke-opacity: 1; stroke-width: 1px;"/><path class="xgrid crisp" transform="translate(1129.6399999999999,0)" d="M0,20v450" style="stroke: rgb(211, 211, 211); stroke-opacity: 1; stroke-width: 1px;"/></g><g class="y"><path class="ygrid crisp" transform="translate(0,374.26)" d="M113,0h1059" style="stroke: rgb(211, 211, 211); stroke-opacity: 1; stroke-width: 1px;"/><path class="ygrid crisp" transform="translate(0,278.51)" d="M113,0h1059" style="stroke: rgb(211, 211, 211); stroke-opacity: 1; stroke-width: 1px;"/><path class="ygrid crisp" transform="translate(0,182.77)" d="M113,0h1059" style="stroke: rgb(211, 211, 211); stroke-opacity: 1; stroke-width: 1px;"/><path class="ygrid crisp" transform="translate(0,87.02)" d="M113,0h1059" style="stroke: rgb(211, 211, 211); stroke-opacity: 1; stroke-width: 1px;"/></g></g><g class="zerolinelayer"><path class="yzl zl crisp" transform="translate(0,470)" d="M113,0h1059" style="stroke: rgb(40, 52, 66); stroke-opacity: 1; stroke-width: 2px;"/></g><path class="xlines-below"/><path class="ylines-below"/><g class="overlines-below"/><g class="xaxislayer-below"/><g class="yaxislayer-below"/><g class="overaxes-below"/><g class="plot" transform="translate(113,20)" clip-path="url(#clip0d64acxyplot)"><g class="scatterlayer mlayer"><g class="trace scatter trace5b8c77" style="stroke-miterlimit: 2;"><g class="fills"><g><path class="js-fill" d="M1059,450L0,450L0,450L10.59,414.54L21.18,361.35L31.77,343.62L42.36,308.16L63.54,308.16L74.13,290.43L232.98,290.43L243.57,272.7L264.75,272.7L275.34,254.96L296.52,219.5L307.11,219.5L402.42,219.5L413.01,201.77L434.19,201.77L444.78,184.04L550.68,184.04L561.27,166.31L603.63,166.31L614.22,148.58L688.35,148.58L698.94,130.85L857.79,130.85L868.38,113.12L878.97,95.39L889.56,59.93L1016.64,59.93L1027.23,42.2L1059,42.2" style="fill: rgb(255, 165, 0); fill-opacity: 0.6; stroke-width: 0;"/></g></g><g class="errorbars"/><g class="lines"><path class="js-line" d="M0,450L10.59,414.54L21.18,361.35L31.77,343.62L42.36,308.16L63.54,308.16L74.13,290.43L232.98,290.43L243.57,272.7L264.75,272.7L275.34,254.96L296.52,219.5L307.11,219.5L402.42,219.5L413.01,201.77L434.19,201.77L444.78,184.04L550.68,184.04L561.27,166.31L603.63,166.31L614.22,148.58L688.35,148.58L698.94,130.85L857.79,130.85L868.38,113.12L878.97,95.39L889.56,59.93L1016.64,59.93L1027.23,42.2L1059,42.2" style="vector-effect: none; fill: none; stroke: rgb(255, 165, 0); stroke-opacity: 1; stroke-dasharray: 9px, 9px; stroke-width: 3px; opacity: 1;"/></g><g class="points"/><g class="text"/></g><g class="trace scatter tracefd840a" style="stroke-miterlimit: 2; opacity: 1;"><g class="fills"/><g class="errorbars"/><g class="lines"><path class="js-line" d="M0,450L10.59,414.54L21.18,361.35L31.77,343.62L42.36,308.16L63.54,308.16L74.13,290.43L201.21,290.43L211.8,272.7L222.39,272.7L232.98,254.96L254.16,254.96L264.75,237.23L275.34,237.23L285.93,219.5L328.29,219.5L338.88,201.77L360.06,201.77L370.65,184.04L487.14,184.04L497.73,166.31L529.5,166.31L540.09,148.58L624.81,148.58L635.4,130.85L762.48,130.85L773.07,113.12L783.66,113.12L794.25,95.39L804.84,59.93L815.43,59.93L878.97,59.93L889.56,42.2L984.87,42.2L995.46,24.47L1027.23,24.47L1037.82,6.74L1059,6.74" style="vector-effect: none; fill: none; stroke: rgb(92, 22, 70); stroke-opacity: 1; stroke-width: 2px; opacity: 1;"/></g><g class="points"><path class="point" transform="translate(0,450)" d="M5,5L-5,-5M5,-5L-5,5" style="opacity: 1; stroke-width: 1px; fill: rgb(92, 22, 70); fill-opacity: 1; stroke: rgb(92, 22, 70); stroke-opacity: 1;"/><path class="point" transform="translate(10.59,414.54)" d="M5,5L-5,-5M5,-5L-5,5" style="opacity: 1; stroke-width: 1px; fill: rgb(92, 22, 70); fill-opacity: 1; stroke: rgb(92, 22, 70); stroke-opacity: 1;"/><path class="point" transform="translate(21.18,361.35)" d="M5,5L-5,-5M5,-5L-5,5" style="opacity: 1; stroke-width: 1px; fill: rgb(92, 22, 70); fill-opacity: 1; stroke: rgb(92, 22, 70); stroke-opacity: 1;"/><path class="point" transform="translate(31.77,343.62)" d="M5,5L-5,-5M5,-5L-5,5" style="opacity: 1; stroke-width: 1px; fill: rgb(92, 22, 70); fill-opacity: 1; stroke: rgb(92, 22, 70); stroke-opacity: 1;"/><path class="point" transform="translate(42.36,308.16)" d="M5,5L-5,-5M5,-5L-5,5" style="opacity: 1; stroke-width: 1px; fill: rgb(92, 22, 70); fill-opacity: 1; stroke: rgb(92, 22, 70); stroke-opacity: 1;"/><path class="point" transform="translate(52.95,308.16)" d="M5,5L-5,-5M5,-5L-5,5" style="opacity: 1; stroke-width: 1px; fill: rgb(92, 22, 70); fill-opacity: 1; stroke: rgb(92, 22, 70); stroke-opacity: 1;"/><path class="point" transform="translate(63.54,308.16)" d="M5,5L-5,-5M5,-5L-5,5" style="opacity: 1; stroke-width: 1px; fill: rgb(92, 22, 70); fill-opacity: 1; stroke: rgb(92, 22, 70); stroke-opacity: 1;"/><path class="point" transform="translate(74.13,290.43)" d="M5,5L-5,-5M5,-5L-5,5" style="opacity: 1; stroke-width: 1px; fill: rgb(92, 22, 70); fill-opacity: 1; stroke: rgb(92, 22, 70); stroke-opacity: 1;"/><path class="point" transform="translate(84.72,290.43)" d="M5,5L-5,-5M5,-5L-5,5" style="opacity: 1; stroke-width: 1px; fill: rgb(92, 22, 70); fill-opacity: 1; stroke: rgb(92, 22, 70); stroke-opacity: 1;"/><path class="point" transform="translate(95.31,290.43)" d="M5,5L-5,-5M5,-5L-5,5" style="opacity: 1; stroke-width: 1px; fill: rgb(92, 22, 70); fill-opacity: 1; stroke: rgb(92, 22, 70); stroke-opacity: 1;"/><path class="point" transform="translate(105.9,290.43)" d="M5,5L-5,-5M5,-5L-5,5" style="opacity: 1; stroke-width: 1px; fill: rgb(92, 22, 70); fill-opacity: 1; stroke: rgb(92, 22, 70); stroke-opacity: 1;"/><path class="point" transform="translate(116.49,290.43)" d="M5,5L-5,-5M5,-5L-5,5" style="opacity: 1; stroke-width: 1px; fill: rgb(92, 22, 70); fill-opacity: 1; stroke: rgb(92, 22, 70); stroke-opacity: 1;"/><path class="point" transform="translate(127.08,290.43)" d="M5,5L-5,-5M5,-5L-5,5" style="opacity: 1; stroke-width: 1px; fill: rgb(92, 22, 70); fill-opacity: 1; stroke: rgb(92, 22, 70); stroke-opacity: 1;"/><path class="point" transform="translate(137.67,290.43)" d="M5,5L-5,-5M5,-5L-5,5" style="opacity: 1; stroke-width: 1px; fill: rgb(92, 22, 70); fill-opacity: 1; stroke: rgb(92, 22, 70); stroke-opacity: 1;"/><path class="point" transform="translate(148.26,290.43)" d="M5,5L-5,-5M5,-5L-5,5" style="opacity: 1; stroke-width: 1px; fill: rgb(92, 22, 70); fill-opacity: 1; stroke: rgb(92, 22, 70); stroke-opacity: 1;"/><path class="point" transform="translate(158.85,290.43)" d="M5,5L-5,-5M5,-5L-5,5" style="opacity: 1; stroke-width: 1px; fill: rgb(92, 22, 70); fill-opacity: 1; stroke: rgb(92, 22, 70); stroke-opacity: 1;"/><path class="point" transform="translate(169.44,290.43)" d="M5,5L-5,-5M5,-5L-5,5" style="opacity: 1; stroke-width: 1px; fill: rgb(92, 22, 70); fill-opacity: 1; stroke: rgb(92, 22, 70); stroke-opacity: 1;"/><path class="point" transform="translate(180.03,290.43)" d="M5,5L-5,-5M5,-5L-5,5" style="opacity: 1; stroke-width: 1px; fill: rgb(92, 22, 70); fill-opacity: 1; stroke: rgb(92, 22, 70); stroke-opacity: 1;"/><path class="point" transform="translate(190.62,290.43)" d="M5,5L-5,-5M5,-5L-5,5" style="opacity: 1; stroke-width: 1px; fill: rgb(92, 22, 70); fill-opacity: 1; stroke: rgb(92, 22, 70); stroke-opacity: 1;"/><path class="point" transform="translate(201.21,290.43)" d="M5,5L-5,-5M5,-5L-5,5" style="opacity: 1; stroke-width: 1px; fill: rgb(92, 22, 70); fill-opacity: 1; stroke: rgb(92, 22, 70); stroke-opacity: 1;"/><path class="point" transform="translate(211.8,272.7)" d="M5,5L-5,-5M5,-5L-5,5" style="opacity: 1; stroke-width: 1px; fill: rgb(92, 22, 70); fill-opacity: 1; stroke: rgb(92, 22, 70); stroke-opacity: 1;"/><path class="point" transform="translate(222.39,272.7)" d="M5,5L-5,-5M5,-5L-5,5" style="opacity: 1; stroke-width: 1px; fill: rgb(92, 22, 70); fill-opacity: 1; stroke: rgb(92, 22, 70); stroke-opacity: 1;"/><path class="point" transform="translate(232.98,254.96)" d="M5,5L-5,-5M5,-5L-5,5" style="opacity: 1; stroke-width: 1px; fill: rgb(92, 22, 70); fill-opacity: 1; stroke: rgb(92, 22, 70); stroke-opacity: 1;"/><path class="point" transform="translate(243.57,254.96)" d="M5,5L-5,-5M5,-5L-5,5" style="opacity: 1; stroke-width: 1px; fill: rgb(92, 22, 70); fill-opacity: 1; stroke: rgb(92, 22, 70); stroke-opacity: 1;"/><path class="point" transform="translate(254.16,254.96)" d="M5,5L-5,-5M5,-5L-5,5" style="opacity: 1; stroke-width: 1px; fill: rgb(92, 22, 70); fill-opacity: 1; stroke: rgb(92, 22, 70); stroke-opacity: 1;"/><path class="point" transform="translate(264.75,237.23)" d="M5,5L-5,-5M5,-5L-5,5" style="opacity: 1; stroke-width: 1px; fill: rgb(92, 22, 70); fill-opacity: 1; stroke: rgb(92, 22, 70); stroke-opacity: 1;"/><path class="point" transform="translate(275.34,237.23)" d="M5,5L-5,-5M5,-5L-5,5" style="opacity: 1; stroke-width: 1px; fill: rgb(92, 22, 70); fill-opacity: 1; stroke: rgb(92, 22, 70); stroke-opacity: 1;"/><path class="point" transform="translate(285.93,219.5)" d="M5,5L-5,-5M5,-5L-5,5" style="opacity: 1; stroke-width: 1px; fill: rgb(92, 22, 70); fill-opacity: 1; stroke: rgb(92, 22, 70); stroke-opacity: 1;"/><path class="point" transform="translate(296.52,219.5)" d="M5,5L-5,-5M5,-5L-5,5" style="opacity: 1; stroke-width: 1px; fill: rgb(92, 22, 70); fill-opacity: 1; stroke: rgb(92, 22, 70); stroke-opacity: 1;"/><path class="point" transform="translate(307.11,219.5)" d="M5,5L-5,-5M5,-5L-5,5" style="opacity: 1; stroke-width: 1px; fill: rgb(92, 22, 70); fill-opacity: 1; stroke: rgb(92, 22, 70); stroke-opacity: 1;"/><path class="point" transform="translate(317.7,219.5)" d="M5,5L-5,-5M5,-5L-5,5" style="opacity: 1; stroke-width: 1px; fill: rgb(92, 22, 70); fill-opacity: 1; stroke: rgb(92, 22, 70); stroke-opacity: 1;"/><path class="point" transform="translate(328.29,219.5)" d="M5,5L-5,-5M5,-5L-5,5" style="opacity: 1; stroke-width: 1px; fill: rgb(92, 22, 70); fill-opacity: 1; stroke: rgb(92, 22, 70); stroke-opacity: 1;"/><path class="point" transform="translate(338.88,201.77)" d="M5,5L-5,-5M5,-5L-5,5" style="opacity: 1; stroke-width: 1px; fill: rgb(92, 22, 70); fill-opacity: 1; stroke: rgb(92, 22, 70); stroke-opacity: 1;"/><path class="point" transform="translate(349.47,201.77)" d="M5,5L-5,-5M5,-5L-5,5" style="opacity: 1; stroke-width: 1px; fill: rgb(92, 22, 70); fill-opacity: 1; stroke: rgb(92, 22, 70); stroke-opacity: 1;"/><path class="point" transform="translate(360.06,201.77)" d="M5,5L-5,-5M5,-5L-5,5" style="opacity: 1; stroke-width: 1px; fill: rgb(92, 22, 70); fill-opacity: 1; stroke: rgb(92, 22, 70); stroke-opacity: 1;"/><path class="point" transform="translate(370.65,184.04)" d="M5,5L-5,-5M5,-5L-5,5" style="opacity: 1; stroke-width: 1px; fill: rgb(92, 22, 70); fill-opacity: 1; stroke: rgb(92, 22, 70); stroke-opacity: 1;"/><path class="point" transform="translate(381.24,184.04)" d="M5,5L-5,-5M5,-5L-5,5" style="opacity: 1; stroke-width: 1px; fill: rgb(92, 22, 70); fill-opacity: 1; stroke: rgb(92, 22, 70); stroke-opacity: 1;"/><path class="point" transform="translate(391.83,184.04)" d="M5,5L-5,-5M5,-5L-5,5" style="opacity: 1; stroke-width: 1px; fill: rgb(92, 22, 70); fill-opacity: 1; stroke: rgb(92, 22, 70); stroke-opacity: 1;"/><path class="point" transform="translate(402.42,184.04)" d="M5,5L-5,-5M5,-5L-5,5" style="opacity: 1; stroke-width: 1px; fill: rgb(92, 22, 70); fill-opacity: 1; stroke: rgb(92, 22, 70); stroke-opacity: 1;"/><path class="point" transform="translate(413.01,184.04)" d="M5,5L-5,-5M5,-5L-5,5" style="opacity: 1; stroke-width: 1px; fill: rgb(92, 22, 70); fill-opacity: 1; stroke: rgb(92, 22, 70); stroke-opacity: 1;"/><path class="point" transform="translate(423.6,184.04)" d="M5,5L-5,-5M5,-5L-5,5" style="opacity: 1; stroke-width: 1px; fill: rgb(92, 22, 70); fill-opacity: 1; stroke: rgb(92, 22, 70); stroke-opacity: 1;"/><path class="point" transform="translate(434.19,184.04)" d="M5,5L-5,-5M5,-5L-5,5" style="opacity: 1; stroke-width: 1px; fill: rgb(92, 22, 70); fill-opacity: 1; stroke: rgb(92, 22, 70); stroke-opacity: 1;"/><path class="point" transform="translate(444.78,184.04)" d="M5,5L-5,-5M5,-5L-5,5" style="opacity: 1; stroke-width: 1px; fill: rgb(92, 22, 70); fill-opacity: 1; stroke: rgb(92, 22, 70); stroke-opacity: 1;"/><path class="point" transform="translate(455.37,184.04)" d="M5,5L-5,-5M5,-5L-5,5" style="opacity: 1; stroke-width: 1px; fill: rgb(92, 22, 70); fill-opacity: 1; stroke: rgb(92, 22, 70); stroke-opacity: 1;"/><path class="point" transform="translate(465.96,184.04)" d="M5,5L-5,-5M5,-5L-5,5" style="opacity: 1; stroke-width: 1px; fill: rgb(92, 22, 70); fill-opacity: 1; stroke: rgb(92, 22, 70); stroke-opacity: 1;"/><path class="point" transform="translate(476.55,184.04)" d="M5,5L-5,-5M5,-5L-5,5" style="opacity: 1; stroke-width: 1px; fill: rgb(92, 22, 70); fill-opacity: 1; stroke: rgb(92, 22, 70); stroke-opacity: 1;"/><path class="point" transform="translate(487.14,184.04)" d="M5,5L-5,-5M5,-5L-5,5" style="opacity: 1; stroke-width: 1px; fill: rgb(92, 22, 70); fill-opacity: 1; stroke: rgb(92, 22, 70); stroke-opacity: 1;"/><path class="point" transform="translate(497.73,166.31)" d="M5,5L-5,-5M5,-5L-5,5" style="opacity: 1; stroke-width: 1px; fill: rgb(92, 22, 70); fill-opacity: 1; stroke: rgb(92, 22, 70); stroke-opacity: 1;"/><path class="point" transform="translate(508.32,166.31)" d="M5,5L-5,-5M5,-5L-5,5" style="opacity: 1; stroke-width: 1px; fill: rgb(92, 22, 70); fill-opacity: 1; stroke: rgb(92, 22, 70); stroke-opacity: 1;"/><path class="point" transform="translate(518.91,166.31)" d="M5,5L-5,-5M5,-5L-5,5" style="opacity: 1; stroke-width: 1px; fill: rgb(92, 22, 70); fill-opacity: 1; stroke: rgb(92, 22, 70); stroke-opacity: 1;"/><path class="point" transform="translate(529.5,166.31)" d="M5,5L-5,-5M5,-5L-5,5" style="opacity: 1; stroke-width: 1px; fill: rgb(92, 22, 70); fill-opacity: 1; stroke: rgb(92, 22, 70); stroke-opacity: 1;"/><path class="point" transform="translate(540.09,148.58)" d="M5,5L-5,-5M5,-5L-5,5" style="opacity: 1; stroke-width: 1px; fill: rgb(92, 22, 70); fill-opacity: 1; stroke: rgb(92, 22, 70); stroke-opacity: 1;"/><path class="point" transform="translate(550.68,148.58)" d="M5,5L-5,-5M5,-5L-5,5" style="opacity: 1; stroke-width: 1px; fill: rgb(92, 22, 70); fill-opacity: 1; stroke: rgb(92, 22, 70); stroke-opacity: 1;"/><path class="point" transform="translate(561.27,148.58)" d="M5,5L-5,-5M5,-5L-5,5" style="opacity: 1; stroke-width: 1px; fill: rgb(92, 22, 70); fill-opacity: 1; stroke: rgb(92, 22, 70); stroke-opacity: 1;"/><path class="point" transform="translate(571.86,148.58)" d="M5,5L-5,-5M5,-5L-5,5" style="opacity: 1; stroke-width: 1px; fill: rgb(92, 22, 70); fill-opacity: 1; stroke: rgb(92, 22, 70); stroke-opacity: 1;"/><path class="point" transform="translate(582.45,148.58)" d="M5,5L-5,-5M5,-5L-5,5" style="opacity: 1; stroke-width: 1px; fill: rgb(92, 22, 70); fill-opacity: 1; stroke: rgb(92, 22, 70); stroke-opacity: 1;"/><path class="point" transform="translate(593.04,148.58)" d="M5,5L-5,-5M5,-5L-5,5" style="opacity: 1; stroke-width: 1px; fill: rgb(92, 22, 70); fill-opacity: 1; stroke: rgb(92, 22, 70); stroke-opacity: 1;"/><path class="point" transform="translate(603.63,148.58)" d="M5,5L-5,-5M5,-5L-5,5" style="opacity: 1; stroke-width: 1px; fill: rgb(92, 22, 70); fill-opacity: 1; stroke: rgb(92, 22, 70); stroke-opacity: 1;"/><path class="point" transform="translate(614.22,148.58)" d="M5,5L-5,-5M5,-5L-5,5" style="opacity: 1; stroke-width: 1px; fill: rgb(92, 22, 70); fill-opacity: 1; stroke: rgb(92, 22, 70); stroke-opacity: 1;"/><path class="point" transform="translate(624.81,148.58)" d="M5,5L-5,-5M5,-5L-5,5" style="opacity: 1; stroke-width: 1px; fill: rgb(92, 22, 70); fill-opacity: 1; stroke: rgb(92, 22, 70); stroke-opacity: 1;"/><path class="point" transform="translate(635.4,130.85)" d="M5,5L-5,-5M5,-5L-5,5" style="opacity: 1; stroke-width: 1px; fill: rgb(92, 22, 70); fill-opacity: 1; stroke: rgb(92, 22, 70); stroke-opacity: 1;"/><path class="point" transform="translate(645.99,130.85)" d="M5,5L-5,-5M5,-5L-5,5" style="opacity: 1; stroke-width: 1px; fill: rgb(92, 22, 70); fill-opacity: 1; stroke: rgb(92, 22, 70); stroke-opacity: 1;"/><path class="point" transform="translate(656.58,130.85)" d="M5,5L-5,-5M5,-5L-5,5" style="opacity: 1; stroke-width: 1px; fill: rgb(92, 22, 70); fill-opacity: 1; stroke: rgb(92, 22, 70); stroke-opacity: 1;"/><path class="point" transform="translate(667.17,130.85)" d="M5,5L-5,-5M5,-5L-5,5" style="opacity: 1; stroke-width: 1px; fill: rgb(92, 22, 70); fill-opacity: 1; stroke: rgb(92, 22, 70); stroke-opacity: 1;"/><path class="point" transform="translate(677.76,130.85)" d="M5,5L-5,-5M5,-5L-5,5" style="opacity: 1; stroke-width: 1px; fill: rgb(92, 22, 70); fill-opacity: 1; stroke: rgb(92, 22, 70); stroke-opacity: 1;"/><path class="point" transform="translate(688.35,130.85)" d="M5,5L-5,-5M5,-5L-5,5" style="opacity: 1; stroke-width: 1px; fill: rgb(92, 22, 70); fill-opacity: 1; stroke: rgb(92, 22, 70); stroke-opacity: 1;"/><path class="point" transform="translate(698.94,130.85)" d="M5,5L-5,-5M5,-5L-5,5" style="opacity: 1; stroke-width: 1px; fill: rgb(92, 22, 70); fill-opacity: 1; stroke: rgb(92, 22, 70); stroke-opacity: 1;"/><path class="point" transform="translate(709.53,130.85)" d="M5,5L-5,-5M5,-5L-5,5" style="opacity: 1; stroke-width: 1px; fill: rgb(92, 22, 70); fill-opacity: 1; stroke: rgb(92, 22, 70); stroke-opacity: 1;"/><path class="point" transform="translate(720.12,130.85)" d="M5,5L-5,-5M5,-5L-5,5" style="opacity: 1; stroke-width: 1px; fill: rgb(92, 22, 70); fill-opacity: 1; stroke: rgb(92, 22, 70); stroke-opacity: 1;"/><path class="point" transform="translate(730.71,130.85)" d="M5,5L-5,-5M5,-5L-5,5" style="opacity: 1; stroke-width: 1px; fill: rgb(92, 22, 70); fill-opacity: 1; stroke: rgb(92, 22, 70); stroke-opacity: 1;"/><path class="point" transform="translate(741.3,130.85)" d="M5,5L-5,-5M5,-5L-5,5" style="opacity: 1; stroke-width: 1px; fill: rgb(92, 22, 70); fill-opacity: 1; stroke: rgb(92, 22, 70); stroke-opacity: 1;"/><path class="point" transform="translate(751.89,130.85)" d="M5,5L-5,-5M5,-5L-5,5" style="opacity: 1; stroke-width: 1px; fill: rgb(92, 22, 70); fill-opacity: 1; stroke: rgb(92, 22, 70); stroke-opacity: 1;"/><path class="point" transform="translate(762.48,130.85)" d="M5,5L-5,-5M5,-5L-5,5" style="opacity: 1; stroke-width: 1px; fill: rgb(92, 22, 70); fill-opacity: 1; stroke: rgb(92, 22, 70); stroke-opacity: 1;"/><path class="point" transform="translate(773.07,113.12)" d="M5,5L-5,-5M5,-5L-5,5" style="opacity: 1; stroke-width: 1px; fill: rgb(92, 22, 70); fill-opacity: 1; stroke: rgb(92, 22, 70); stroke-opacity: 1;"/><path class="point" transform="translate(783.66,113.12)" d="M5,5L-5,-5M5,-5L-5,5" style="opacity: 1; stroke-width: 1px; fill: rgb(92, 22, 70); fill-opacity: 1; stroke: rgb(92, 22, 70); stroke-opacity: 1;"/><path class="point" transform="translate(794.25,95.39)" d="M5,5L-5,-5M5,-5L-5,5" style="opacity: 1; stroke-width: 1px; fill: rgb(92, 22, 70); fill-opacity: 1; stroke: rgb(92, 22, 70); stroke-opacity: 1;"/><path class="point" transform="translate(804.84,59.93)" d="M5,5L-5,-5M5,-5L-5,5" style="opacity: 1; stroke-width: 1px; fill: rgb(92, 22, 70); fill-opacity: 1; stroke: rgb(92, 22, 70); stroke-opacity: 1;"/><path class="point" transform="translate(815.43,59.93)" d="M5,5L-5,-5M5,-5L-5,5" style="opacity: 1; stroke-width: 1px; fill: rgb(92, 22, 70); fill-opacity: 1; stroke: rgb(92, 22, 70); stroke-opacity: 1;"/><path class="point" transform="translate(826.02,59.93)" d="M5,5L-5,-5M5,-5L-5,5" style="opacity: 1; stroke-width: 1px; fill: rgb(92, 22, 70); fill-opacity: 1; stroke: rgb(92, 22, 70); stroke-opacity: 1;"/><path class="point" transform="translate(836.61,59.93)" d="M5,5L-5,-5M5,-5L-5,5" style="opacity: 1; stroke-width: 1px; fill: rgb(92, 22, 70); fill-opacity: 1; stroke: rgb(92, 22, 70); stroke-opacity: 1;"/><path class="point" transform="translate(847.2,59.93)" d="M5,5L-5,-5M5,-5L-5,5" style="opacity: 1; stroke-width: 1px; fill: rgb(92, 22, 70); fill-opacity: 1; stroke: rgb(92, 22, 70); stroke-opacity: 1;"/><path class="point" transform="translate(857.79,59.93)" d="M5,5L-5,-5M5,-5L-5,5" style="opacity: 1; stroke-width: 1px; fill: rgb(92, 22, 70); fill-opacity: 1; stroke: rgb(92, 22, 70); stroke-opacity: 1;"/><path class="point" transform="translate(868.38,59.93)" d="M5,5L-5,-5M5,-5L-5,5" style="opacity: 1; stroke-width: 1px; fill: rgb(92, 22, 70); fill-opacity: 1; stroke: rgb(92, 22, 70); stroke-opacity: 1;"/><path class="point" transform="translate(878.97,59.93)" d="M5,5L-5,-5M5,-5L-5,5" style="opacity: 1; stroke-width: 1px; fill: rgb(92, 22, 70); fill-opacity: 1; stroke: rgb(92, 22, 70); stroke-opacity: 1;"/><path class="point" transform="translate(889.56,42.2)" d="M5,5L-5,-5M5,-5L-5,5" style="opacity: 1; stroke-width: 1px; fill: rgb(92, 22, 70); fill-opacity: 1; stroke: rgb(92, 22, 70); stroke-opacity: 1;"/><path class="point" transform="translate(900.15,42.2)" d="M5,5L-5,-5M5,-5L-5,5" style="opacity: 1; stroke-width: 1px; fill: rgb(92, 22, 70); fill-opacity: 1; stroke: rgb(92, 22, 70); stroke-opacity: 1;"/><path class="point" transform="translate(910.74,42.2)" d="M5,5L-5,-5M5,-5L-5,5" style="opacity: 1; stroke-width: 1px; fill: rgb(92, 22, 70); fill-opacity: 1; stroke: rgb(92, 22, 70); stroke-opacity: 1;"/><path class="point" transform="translate(921.33,42.2)" d="M5,5L-5,-5M5,-5L-5,5" style="opacity: 1; stroke-width: 1px; fill: rgb(92, 22, 70); fill-opacity: 1; stroke: rgb(92, 22, 70); stroke-opacity: 1;"/><path class="point" transform="translate(931.92,42.2)" d="M5,5L-5,-5M5,-5L-5,5" style="opacity: 1; stroke-width: 1px; fill: rgb(92, 22, 70); fill-opacity: 1; stroke: rgb(92, 22, 70); stroke-opacity: 1;"/><path class="point" transform="translate(942.51,42.2)" d="M5,5L-5,-5M5,-5L-5,5" style="opacity: 1; stroke-width: 1px; fill: rgb(92, 22, 70); fill-opacity: 1; stroke: rgb(92, 22, 70); stroke-opacity: 1;"/><path class="point" transform="translate(953.1,42.2)" d="M5,5L-5,-5M5,-5L-5,5" style="opacity: 1; stroke-width: 1px; fill: rgb(92, 22, 70); fill-opacity: 1; stroke: rgb(92, 22, 70); stroke-opacity: 1;"/><path class="point" transform="translate(963.69,42.2)" d="M5,5L-5,-5M5,-5L-5,5" style="opacity: 1; stroke-width: 1px; fill: rgb(92, 22, 70); fill-opacity: 1; stroke: rgb(92, 22, 70); stroke-opacity: 1;"/><path class="point" transform="translate(974.28,42.2)" d="M5,5L-5,-5M5,-5L-5,5" style="opacity: 1; stroke-width: 1px; fill: rgb(92, 22, 70); fill-opacity: 1; stroke: rgb(92, 22, 70); stroke-opacity: 1;"/><path class="point" transform="translate(984.87,42.2)" d="M5,5L-5,-5M5,-5L-5,5" style="opacity: 1; stroke-width: 1px; fill: rgb(92, 22, 70); fill-opacity: 1; stroke: rgb(92, 22, 70); stroke-opacity: 1;"/><path class="point" transform="translate(995.46,24.47)" d="M5,5L-5,-5M5,-5L-5,5" style="opacity: 1; stroke-width: 1px; fill: rgb(92, 22, 70); fill-opacity: 1; stroke: rgb(92, 22, 70); stroke-opacity: 1;"/><path class="point" transform="translate(1006.05,24.47)" d="M5,5L-5,-5M5,-5L-5,5" style="opacity: 1; stroke-width: 1px; fill: rgb(92, 22, 70); fill-opacity: 1; stroke: rgb(92, 22, 70); stroke-opacity: 1;"/><path class="point" transform="translate(1016.64,24.47)" d="M5,5L-5,-5M5,-5L-5,5" style="opacity: 1; stroke-width: 1px; fill: rgb(92, 22, 70); fill-opacity: 1; stroke: rgb(92, 22, 70); stroke-opacity: 1;"/><path class="point" transform="translate(1027.23,24.47)" d="M5,5L-5,-5M5,-5L-5,5" style="opacity: 1; stroke-width: 1px; fill: rgb(92, 22, 70); fill-opacity: 1; stroke: rgb(92, 22, 70); stroke-opacity: 1;"/><path class="point" transform="translate(1037.82,6.74)" d="M5,5L-5,-5M5,-5L-5,5" style="opacity: 1; stroke-width: 1px; fill: rgb(92, 22, 70); fill-opacity: 1; stroke: rgb(92, 22, 70); stroke-opacity: 1;"/><path class="point" transform="translate(1048.41,6.74)" d="M5,5L-5,-5M5,-5L-5,5" style="opacity: 1; stroke-width: 1px; fill: rgb(92, 22, 70); fill-opacity: 1; stroke: rgb(92, 22, 70); stroke-opacity: 1;"/><path class="point" transform="translate(1059,6.74)" d="M5,5L-5,-5M5,-5L-5,5" style="opacity: 1; stroke-width: 1px; fill: rgb(92, 22, 70); fill-opacity: 1; stroke: rgb(92, 22, 70); stroke-opacity: 1;"/></g><g class="text"/></g><g class="trace scatter trace13c9b5" style="stroke-miterlimit: 2; opacity: 1;"><g class="fills"><g><path class="js-fill" d="M0,450L10.59,414.54L21.18,361.35L31.77,343.62L42.36,308.16L63.54,308.16L74.13,290.43L232.98,290.43L243.57,272.7L264.75,272.7L275.34,254.96L296.52,219.5L307.11,219.5L402.42,219.5L413.01,201.77L434.19,201.77L444.78,184.04L550.68,184.04L561.27,166.31L603.63,166.31L614.22,148.58L688.35,148.58L698.94,130.85L857.79,130.85L868.38,113.12L878.97,95.39L889.56,59.93L1016.64,59.93L1027.23,42.2L1059,42.2L1059,6.74L1037.82,6.74L1027.23,24.47L995.46,24.47L984.87,42.2L889.56,42.2L878.97,59.93L804.84,59.93L794.25,95.39L783.66,113.12L773.07,113.12L762.48,130.85L751.89,130.85L635.4,130.85L624.81,148.58L540.09,148.58L529.5,166.31L497.73,166.31L487.14,184.04L370.65,184.04L360.06,201.77L338.88,201.77L328.29,219.5L285.93,219.5L275.34,237.23L264.75,237.23L254.16,254.96L232.98,254.96L222.39,272.7L211.8,272.7L201.21,290.43L74.13,290.43L63.54,308.16L42.36,308.16L31.77,343.62L21.18,361.35L10.59,414.54L0,450Z" style="fill: rgb(255, 0, 0); fill-opacity: 0.15; stroke-width: 0;"/></g></g><g class="errorbars"/><g class="lines"><path class="js-line" d="M0,450L10.59,414.54L21.18,361.35L31.77,343.62L42.36,308.16L63.54,308.16L74.13,290.43L232.98,290.43L243.57,272.7L264.75,272.7L275.34,254.96L296.52,219.5L307.11,219.5L402.42,219.5L413.01,201.77L434.19,201.77L444.78,184.04L550.68,184.04L561.27,166.31L603.63,166.31L614.22,148.58L688.35,148.58L698.94,130.85L857.79,130.85L868.38,113.12L878.97,95.39L889.56,59.93L1016.64,59.93L1027.23,42.2L1059,42.2L1059,6.74L1037.82,6.74L1027.23,24.47L995.46,24.47L984.87,42.2L889.56,42.2L878.97,59.93L804.84,59.93L794.25,95.39L783.66,113.12L773.07,113.12L762.48,130.85L751.89,130.85L635.4,130.85L624.81,148.58L540.09,148.58L529.5,166.31L497.73,166.31L487.14,184.04L370.65,184.04L360.06,201.77L338.88,201.77L328.29,219.5L285.93,219.5L275.34,237.23L264.75,237.23L254.16,254.96L232.98,254.96L222.39,272.7L211.8,272.7L201.21,290.43L74.13,290.43L63.54,308.16L42.36,308.16L31.77,343.62L21.18,361.35L10.59,414.54L0,450" style="vector-effect: none; fill: none; stroke: rgb(255, 0, 0); stroke-opacity: 0; stroke-width: 2px; opacity: 1;"/></g><g class="points"/><g class="text"/></g></g></g><g class="overplot"/><path class="xlines-above crisp" d="M112,470.5H1172" style="fill: none; stroke-width: 1px; stroke: rgb(80, 103, 132); stroke-opacity: 1;"/><path class="ylines-above crisp" d="M112.5,20V470" style="fill: none; stroke-width: 1px; stroke: rgb(80, 103, 132); stroke-opacity: 1;"/><g class="overlines-above"/><g class="xaxislayer-above"><path class="xtick ticks crisp" d="M0,471v5" transform="translate(113,0)" style="stroke: rgb(68, 68, 68); stroke-opacity: 1; stroke-width: 1px;"/><path class="xtick ticks crisp" d="M0,471v5" transform="translate(155.36,0)" style="stroke: rgb(68, 68, 68); stroke-opacity: 1; stroke-width: 1px;"/><path class="xtick ticks crisp" d="M0,471v5" transform="translate(197.72,0)" style="stroke: rgb(68, 68, 68); stroke-opacity: 1; stroke-width: 1px;"/><path class="xtick ticks crisp" d="M0,471v5" transform="translate(240.07999999999998,0)" style="stroke: rgb(68, 68, 68); stroke-opacity: 1; stroke-width: 1px;"/><path class="xtick ticks crisp" d="M0,471v5" transform="translate(282.44,0)" style="stroke: rgb(68, 68, 68); stroke-opacity: 1; stroke-width: 1px;"/><path class="xtick ticks crisp" d="M0,471v5" transform="translate(324.8,0)" style="stroke: rgb(68, 68, 68); stroke-opacity: 1; stroke-width: 1px;"/><path class="xtick ticks crisp" d="M0,471v5" transform="translate(367.15999999999997,0)" style="stroke: rgb(68, 68, 68); stroke-opacity: 1; stroke-width: 1px;"/><path class="xtick ticks crisp" d="M0,471v5" transform="translate(409.52,0)" style="stroke: rgb(68, 68, 68); stroke-opacity: 1; stroke-width: 1px;"/><path class="xtick ticks crisp" d="M0,471v5" transform="translate(451.88,0)" style="stroke: rgb(68, 68, 68); stroke-opacity: 1; stroke-width: 1px;"/><path class="xtick ticks crisp" d="M0,471v5" transform="translate(494.24,0)" style="stroke: rgb(68, 68, 68); stroke-opacity: 1; stroke-width: 1px;"/><path class="xtick ticks crisp" d="M0,471v5" transform="translate(536.6,0)" style="stroke: rgb(68, 68, 68); stroke-opacity: 1; stroke-width: 1px;"/><path class="xtick ticks crisp" d="M0,471v5" transform="translate(578.96,0)" style="stroke: rgb(68, 68, 68); stroke-opacity: 1; stroke-width: 1px;"/><path class="xtick ticks crisp" d="M0,471v5" transform="translate(621.3199999999999,0)" style="stroke: rgb(68, 68, 68); stroke-opacity: 1; stroke-width: 1px;"/><path class="xtick ticks crisp" d="M0,471v5" transform="translate(663.68,0)" style="stroke: rgb(68, 68, 68); stroke-opacity: 1; stroke-width: 1px;"/><path class="xtick ticks crisp" d="M0,471v5" transform="translate(706.04,0)" style="stroke: rgb(68, 68, 68); stroke-opacity: 1; stroke-width: 1px;"/><path class="xtick ticks crisp" d="M0,471v5" transform="translate(748.4,0)" style="stroke: rgb(68, 68, 68); stroke-opacity: 1; stroke-width: 1px;"/><path class="xtick ticks crisp" d="M0,471v5" transform="translate(790.76,0)" style="stroke: rgb(68, 68, 68); stroke-opacity: 1; stroke-width: 1px;"/><path class="xtick ticks crisp" d="M0,471v5" transform="translate(833.12,0)" style="stroke: rgb(68, 68, 68); stroke-opacity: 1; stroke-width: 1px;"/><path class="xtick ticks crisp" d="M0,471v5" transform="translate(875.48,0)" style="stroke: rgb(68, 68, 68); stroke-opacity: 1; stroke-width: 1px;"/><path class="xtick ticks crisp" d="M0,471v5" transform="translate(917.84,0)" style="stroke: rgb(68, 68, 68); stroke-opacity: 1; stroke-width: 1px;"/><path class="xtick ticks crisp" d="M0,471v5" transform="translate(960.2,0)" style="stroke: rgb(68, 68, 68); stroke-opacity: 1; stroke-width: 1px;"/><path class="xtick ticks crisp" d="M0,471v5" transform="translate(1002.56,0)" style="stroke: rgb(68, 68, 68); stroke-opacity: 1; stroke-width: 1px;"/><path class="xtick ticks crisp" d="M0,471v5" transform="translate(1044.92,0)" style="stroke: rgb(68, 68, 68); stroke-opacity: 1; stroke-width: 1px;"/><path class="xtick ticks crisp" d="M0,471v5" transform="translate(1087.28,0)" style="stroke: rgb(68, 68, 68); stroke-opacity: 1; stroke-width: 1px;"/><path class="xtick ticks crisp" d="M0,471v5" transform="translate(1129.6399999999999,0)" style="stroke: rgb(68, 68, 68); stroke-opacity: 1; stroke-width: 1px;"/><path class="xtick ticks crisp" d="M0,471v5" transform="translate(1172,0)" style="stroke: rgb(68, 68, 68); stroke-opacity: 1; stroke-width: 1px;"/><g class="xtick"><text text-anchor="end" x="-5.25" y="503" transform="translate(113,0) rotate(-90,-5.25,488)" style="font-family: 'Times New Roman', monospace; font-size: 30px; fill: rgb(0, 0, 0); fill-opacity: 1; white-space: pre; opacity: 1;">0</text></g><g class="xtick"><text text-anchor="end" x="-5.25" y="503" transform="translate(155.36,0) rotate(-90,-5.25,488)" style="font-family: 'Times New Roman', monospace; font-size: 30px; fill: rgb(0, 0, 0); fill-opacity: 1; white-space: pre; opacity: 1;">40</text></g><g class="xtick"><text text-anchor="end" x="-5.25" y="503" transform="translate(197.72,0) rotate(-90,-5.25,488)" style="font-family: 'Times New Roman', monospace; font-size: 30px; fill: rgb(0, 0, 0); fill-opacity: 1; white-space: pre; opacity: 1;">80</text></g><g class="xtick"><text text-anchor="end" x="-5.25" y="503" transform="translate(240.07999999999998,0) rotate(-90,-5.25,488)" style="font-family: 'Times New Roman', monospace; font-size: 30px; fill: rgb(0, 0, 0); fill-opacity: 1; white-space: pre; opacity: 1;">120</text></g><g class="xtick"><text text-anchor="end" x="-5.25" y="503" transform="translate(282.44,0) rotate(-90,-5.25,488)" style="font-family: 'Times New Roman', monospace; font-size: 30px; fill: rgb(0, 0, 0); fill-opacity: 1; white-space: pre; opacity: 1;">160</text></g><g class="xtick"><text text-anchor="end" x="-5.25" y="503" transform="translate(324.8,0) rotate(-90,-5.25,488)" style="font-family: 'Times New Roman', monospace; font-size: 30px; fill: rgb(0, 0, 0); fill-opacity: 1; white-space: pre; opacity: 1;">200</text></g><g class="xtick"><text text-anchor="end" x="-5.25" y="503" transform="translate(367.15999999999997,0) rotate(-90,-5.25,488)" style="font-family: 'Times New Roman', monospace; font-size: 30px; fill: rgb(0, 0, 0); fill-opacity: 1; white-space: pre; opacity: 1;">240</text></g><g class="xtick"><text text-anchor="end" x="-5.25" y="503" transform="translate(409.52,0) rotate(-90,-5.25,488)" style="font-family: 'Times New Roman', monospace; font-size: 30px; fill: rgb(0, 0, 0); fill-opacity: 1; white-space: pre; opacity: 1;">280</text></g><g class="xtick"><text text-anchor="end" x="-5.25" y="503" transform="translate(451.88,0) rotate(-90,-5.25,488)" style="font-family: 'Times New Roman', monospace; font-size: 30px; fill: rgb(0, 0, 0); fill-opacity: 1; white-space: pre; opacity: 1;">320</text></g><g class="xtick"><text text-anchor="end" x="-5.25" y="503" transform="translate(494.24,0) rotate(-90,-5.25,488)" style="font-family: 'Times New Roman', monospace; font-size: 30px; fill: rgb(0, 0, 0); fill-opacity: 1; white-space: pre; opacity: 1;">360</text></g><g class="xtick"><text text-anchor="end" x="-5.25" y="503" transform="translate(536.6,0) rotate(-90,-5.25,488)" style="font-family: 'Times New Roman', monospace; font-size: 30px; fill: rgb(0, 0, 0); fill-opacity: 1; white-space: pre; opacity: 1;">400</text></g><g class="xtick"><text text-anchor="end" x="-5.25" y="503" transform="translate(578.96,0) rotate(-90,-5.25,488)" style="font-family: 'Times New Roman', monospace; font-size: 30px; fill: rgb(0, 0, 0); fill-opacity: 1; white-space: pre; opacity: 1;">440</text></g><g class="xtick"><text text-anchor="end" x="-5.25" y="503" transform="translate(621.3199999999999,0) rotate(-90,-5.25,488)" style="font-family: 'Times New Roman', monospace; font-size: 30px; fill: rgb(0, 0, 0); fill-opacity: 1; white-space: pre; opacity: 1;">480</text></g><g class="xtick"><text text-anchor="end" x="-5.25" y="503" transform="translate(663.68,0) rotate(-90,-5.25,488)" style="font-family: 'Times New Roman', monospace; font-size: 30px; fill: rgb(0, 0, 0); fill-opacity: 1; white-space: pre; opacity: 1;">520</text></g><g class="xtick"><text text-anchor="end" x="-5.25" y="503" transform="translate(706.04,0) rotate(-90,-5.25,488)" style="font-family: 'Times New Roman', monospace; font-size: 30px; fill: rgb(0, 0, 0); fill-opacity: 1; white-space: pre; opacity: 1;">560</text></g><g class="xtick"><text text-anchor="end" x="-5.25" y="503" transform="translate(748.4,0) rotate(-90,-5.25,488)" style="font-family: 'Times New Roman', monospace; font-size: 30px; fill: rgb(0, 0, 0); fill-opacity: 1; white-space: pre; opacity: 1;">600</text></g><g class="xtick"><text text-anchor="end" x="-5.25" y="503" transform="translate(790.76,0) rotate(-90,-5.25,488)" style="font-family: 'Times New Roman', monospace; font-size: 30px; fill: rgb(0, 0, 0); fill-opacity: 1; white-space: pre; opacity: 1;">640</text></g><g class="xtick"><text text-anchor="end" x="-5.25" y="503" transform="translate(833.12,0) rotate(-90,-5.25,488)" style="font-family: 'Times New Roman', monospace; font-size: 30px; fill: rgb(0, 0, 0); fill-opacity: 1; white-space: pre; opacity: 1;">680</text></g><g class="xtick"><text text-anchor="end" x="-5.25" y="503" transform="translate(875.48,0) rotate(-90,-5.25,488)" style="font-family: 'Times New Roman', monospace; font-size: 30px; fill: rgb(0, 0, 0); fill-opacity: 1; white-space: pre; opacity: 1;">720</text></g><g class="xtick"><text text-anchor="end" x="-5.25" y="503" transform="translate(917.84,0) rotate(-90,-5.25,488)" style="font-family: 'Times New Roman', monospace; font-size: 30px; fill: rgb(0, 0, 0); fill-opacity: 1; white-space: pre; opacity: 1;">760</text></g><g class="xtick"><text text-anchor="end" x="-5.25" y="503" transform="translate(960.2,0) rotate(-90,-5.25,488)" style="font-family: 'Times New Roman', monospace; font-size: 30px; fill: rgb(0, 0, 0); fill-opacity: 1; white-space: pre; opacity: 1;">800</text></g><g class="xtick"><text text-anchor="end" x="-5.25" y="503" transform="translate(1002.56,0) rotate(-90,-5.25,488)" style="font-family: 'Times New Roman', monospace; font-size: 30px; fill: rgb(0, 0, 0); fill-opacity: 1; white-space: pre; opacity: 1;">840</text></g><g class="xtick"><text text-anchor="end" x="-5.25" y="503" transform="translate(1044.92,0) rotate(-90,-5.25,488)" style="font-family: 'Times New Roman', monospace; font-size: 30px; fill: rgb(0, 0, 0); fill-opacity: 1; white-space: pre; opacity: 1;">880</text></g><g class="xtick"><text text-anchor="end" x="-5.25" y="503" transform="translate(1087.28,0) rotate(-90,-5.25,488)" style="font-family: 'Times New Roman', monospace; font-size: 30px; fill: rgb(0, 0, 0); fill-opacity: 1; white-space: pre; opacity: 1;">920</text></g><g class="xtick"><text text-anchor="end" x="-5.25" y="503" transform="translate(1129.6399999999999,0) rotate(-90,-5.25,488)" style="font-family: 'Times New Roman', monospace; font-size: 30px; fill: rgb(0, 0, 0); fill-opacity: 1; white-space: pre; opacity: 1;">960</text></g><g class="xtick"><text text-anchor="end" x="-5.25" y="503" transform="translate(1172,0) rotate(-90,-5.25,488)" style="font-family: 'Times New Roman', monospace; font-size: 30px; fill: rgb(0, 0, 0); fill-opacity: 1; white-space: pre; opacity: 1;">1000</text></g></g><g class="yaxislayer-above"><path class="ytick ticks crisp" d="M112,0h-5" transform="translate(0,470)" style="stroke: rgb(68, 68, 68); stroke-opacity: 1; stroke-width: 1px;"/><path class="ytick ticks crisp" d="M112,0h-5" transform="translate(0,374.26)" style="stroke: rgb(68, 68, 68); stroke-opacity: 1; stroke-width: 1px;"/><path class="ytick ticks crisp" d="M112,0h-5" transform="translate(0,278.51)" style="stroke: rgb(68, 68, 68); stroke-opacity: 1; stroke-width: 1px;"/><path class="ytick ticks crisp" d="M112,0h-5" transform="translate(0,182.77)" style="stroke: rgb(68, 68, 68); stroke-opacity: 1; stroke-width: 1px;"/><path class="ytick ticks crisp" d="M112,0h-5" transform="translate(0,87.02)" style="stroke: rgb(68, 68, 68); stroke-opacity: 1; stroke-width: 1px;"/><g class="ytick"><text text-anchor="end" x="101" y="10.5" transform="translate(0,470)" style="font-family: 'Times New Roman', monospace; font-size: 30px; fill: rgb(0, 0, 0); fill-opacity: 1; white-space: pre; opacity: 1;">0.0</text></g><g class="ytick"><text text-anchor="end" x="101" y="10.5" style="font-family: 'Times New Roman', monospace; font-size: 30px; fill: rgb(0, 0, 0); fill-opacity: 1; white-space: pre; opacity: 1;" transform="translate(0,374.26)">5.0</text></g><g class="ytick"><text text-anchor="end" x="101" y="10.5" style="font-family: 'Times New Roman', monospace; font-size: 30px; fill: rgb(0, 0, 0); fill-opacity: 1; white-space: pre; opacity: 1;" transform="translate(0,278.51)">10.0</text></g><g class="ytick"><text text-anchor="end" x="101" y="10.5" style="font-family: 'Times New Roman', monospace; font-size: 30px; fill: rgb(0, 0, 0); fill-opacity: 1; white-space: pre; opacity: 1;" transform="translate(0,182.77)">15.0</text></g><g class="ytick"><text text-anchor="end" x="101" y="10.5" style="font-family: 'Times New Roman', monospace; font-size: 30px; fill: rgb(0, 0, 0); fill-opacity: 1; white-space: pre; opacity: 1;" transform="translate(0,87.02)">20.0</text></g></g><g class="overaxes-above"/></g></g><g class="polarlayer"/><g class="smithlayer"/><g class="ternarylayer"/><g class="geolayer"/><g class="funnelarealayer"/><g class="pielayer"/><g class="iciclelayer"/><g class="treemaplayer"/><g class="sunburstlayer"/><g class="glimages"/><defs id="topdefs-0d64ac"><g class="clips"/><clipPath id="legend0d64ac"><rect width="192" height="136" x="1" y="1"/></clipPath></defs><g class="layer-above"><g class="imagelayer"/><g class="shapelayer"><g class="shape-group" data-index="0"><path data-index="0" fill-rule="evenodd" d="M113,470H1172V20H113Z" style="opacity: 1; stroke: rgb(0, 0, 0); stroke-opacity: 1; fill: rgb(0, 0, 0); fill-opacity: 0; stroke-width: 1px;"/></g></g></g><g class="infolayer"><g class="legend" pointer-events="all" transform="translate(121.9,22.25)"><rect class="bg" shape-rendering="crispEdges" style="stroke: rgb(0, 0, 0); stroke-opacity: 1; fill: rgb(255, 255, 255); fill-opacity: 1; stroke-width: 1px;" width="193" height="137" x="0.5" y="0.5"/><g class="scrollbox" transform="" clip-path="url(#legend0d64ac)"><g class="groups"><g class="traces" transform="translate(1,27)" style="opacity: 1;"><text class="legendtext" text-anchor="start" x="40" y="11.7" style="font-family: 'Times New Roman', monospace; font-size: 30px; fill: rgb(0, 0, 0); fill-opacity: 1; white-space: pre;">Power Flow</text><g class="layers" transform=""><g class="legendfill"><path class="js-fill" d="M5,-2h30v6h-30z" style="stroke-width: 0; fill: rgb(255, 165, 0); fill-opacity: 0.6;"/></g><g class="legendlines"><path class="js-line" d="M5,-2h30" style="fill: none; stroke: rgb(255, 165, 0); stroke-opacity: 1; stroke-dasharray: 9px, 9px; stroke-width: 3px;"/></g><g class="legendsymbols"><g class="legendpoints"/></g></g><rect class="legendtoggle" x="0" y="-21" width="186.1875" height="42" style="fill: rgb(0, 0, 0); fill-opacity: 0;"/></g><g class="traces" transform="translate(1,69)" style="opacity: 1;"><text class="legendtext" text-anchor="start" x="40" y="11.7" style="font-family: 'Times New Roman', monospace; font-size: 30px; fill: rgb(0, 0, 0); fill-opacity: 1; white-space: pre;">Sensitivity</text><g class="layers" transform="" style="opacity: 1;"><g class="legendfill"/><g class="legendlines"><path class="js-line" d="M5,0h30" style="fill: none; stroke: rgb(92, 22, 70); stroke-opacity: 1; stroke-width: 2px;"/></g><g class="legendsymbols"><g class="legendpoints"><path class="scatterpts" transform="translate(20,0)" d="M5,5L-5,-5M5,-5L-5,5" style="opacity: 1; stroke-width: 1px; fill: rgb(92, 22, 70); fill-opacity: 1; stroke: rgb(92, 22, 70); stroke-opacity: 1;"/></g></g></g><rect class="legendtoggle" x="0" y="-21" width="186.1875" height="42" style="fill: rgb(0, 0, 0); fill-opacity: 0;"/></g><g class="traces" transform="translate(1,111)" style="opacity: 1;"><text class="legendtext" text-anchor="start" x="40" y="11.7" style="font-family: 'Times New Roman', monospace; font-size: 30px; fill: rgb(0, 0, 0); fill-opacity: 1; white-space: pre;">Error</text><g class="layers" transform="" style="opacity: 1;"><g class="legendfill"><path class="js-fill" d="M5,-2h30v6h-30z" style="stroke-width: 0; fill: rgb(255, 0, 0); fill-opacity: 0.15;"/></g><g class="legendlines"><path class="js-line" d="M5,-2h30" style="fill: none; stroke: rgb(255, 0, 0); stroke-opacity: 0; stroke-width: 2px;"/></g><g class="legendsymbols"><g class="legendpoints"/></g></g><rect class="legendtoggle" x="0" y="-21" width="186.1875" height="42" style="fill: rgb(0, 0, 0); fill-opacity: 0;"/></g></g></g><rect class="scrollbar" rx="20" ry="3" width="0" height="0" style="fill: rgb(128, 139, 164); fill-opacity: 1;" x="0" y="0"/></g><g class="g-gtitle"/><g class="g-xtitle"><text class="xtitle" x="642.5" y="587.7" text-anchor="middle" style="font-family: 'Times New Roman', monospace; font-size: 36px; fill: rgb(0, 0, 0); opacity: 1; font-weight: normal; white-space: pre;">Bus PV Penetration Level [%]</text></g><g class="g-ytitle" transform="translate(14,0)"><text class="ytitle" transform="rotate(-90,13,245)" x="13" y="245" text-anchor="middle" style="font-family: 'Times New Roman', monospace; font-size: 30px; fill: rgb(0, 0, 0); opacity: 1; font-weight: normal; white-space: pre;">Cases with Voltage Violation [%]</text></g></g></svg>